<?xml version="1.0" standalone="no"?><!DOCTYPE svg PUBLIC "-//W3C//DTD SVG 1.1//EN" "http://www.w3.org/Graphics/SVG/1.1/DTD/svg11.dtd"><svg t="1674022201742" class="icon" viewBox="0 0 1024 1024" version="1.1" xmlns="http://www.w3.org/2000/svg" p-id="4500" xmlns:xlink="http://www.w3.org/1999/xlink" width="200" height="200"><path d="M0 0h1024v1024H0z" fill="#FFFFFF" p-id="4501"></path><path d="M689.12 613.632l-30.336 10.24 30.336-10.24z m47.104 318.08a32 32 0 1 0 63.552-7.424l-63.552 7.424zM65.056 744.32a32 32 0 1 0 61.888 16.224l-61.888-16.224zM287.648 204.544l25.952 18.688-25.92-18.688z m12-9.792l-14.464-28.544 14.464 28.544z m182.208-77.984l-10.24-30.336 10.24 30.336z m285.344 61.504l7.488 31.104-7.488-31.104z m79.488-21.216l-9.024-30.72 9.024 30.72z m56.32 21.44l-28.96 13.664 28.928-13.664z m-0.064 176.096l20.128 24.864-20.16-24.864z m-165.28 117.856l17.6 26.752-17.6-26.752zM591.712 121.312l19.52-25.376-19.52 25.376z m-33.472 524.064a32 32 0 0 0 35.52 53.248l-35.52-53.248zM256 336a32 32 0 0 0-64 0h64z m402.784 287.872c28.256 83.744 65.856 208.48 77.44 307.84l63.552-7.424c-12.384-106.496-51.936-236.672-80.32-320.896l-60.672 20.48z m-531.84 136.672C234.88 349.44 299.52 242.88 313.6 223.264l-51.904-37.44c-21.568 29.92-88.512 146.56-196.64 558.496l61.888 16.224z m187.2-537.28c23.424-11.872 101.76-50.528 177.92-76.16L471.616 86.4c-80.672 27.2-162.368 67.552-186.432 79.776l28.928 57.056z m460.544-13.888a1709.984 1709.984 0 0 0 81.024-21.6l-18.048-61.44c-19.776 5.824-46.656 13.28-77.952 20.8l14.976 62.24z m99.36-17.216c11.968 25.376 20.544 57.344 21.792 85.568 1.344 30.144-5.792 46.144-13.056 52l40.288 49.728c31.808-25.728 38.304-68.992 36.704-104.576-1.664-37.536-12.608-77.76-27.84-110.08l-57.92 27.36z m8.736 137.568c-33.312 26.976-94.272 71.008-162.688 116l35.168 53.472c69.376-45.632 132.224-90.944 167.808-119.744l-40.288-49.728z m-390.72-182.656c26.656-8.96 38.4-13.28 49.024-13.728 6.816-0.32 15.04 0.96 31.104 13.312l39.04-50.72c-24.128-18.56-46.784-27.648-72.864-26.56-22.24 0.96-45.376 9.856-66.752 17.056l20.48 60.64z m363.648 40.704a21.76 21.76 0 0 1 13.024-0.064c2.88 1.024 4.416 2.56 5.312 4.448l57.856-27.328c-18.4-39.008-61.664-48.032-94.24-38.464l18.048 61.408z m-136.288 415.616a90.56 90.56 0 0 1 35.84-104.192l-35.168-53.472a154.56 154.56 0 0 0-61.312 178.144l60.64-20.48zM572.192 146.656c23.616 18.176 57.664 36.992 92.8 49.792 33.984 12.384 74.848 21.312 109.696 12.928l-14.976-62.24c-16.128 3.904-42.24 0.32-72.832-10.816-29.504-10.752-57.696-26.56-75.648-40.384l-39.04 50.72z m-258.56 76.576c-0.384 0.512-0.64 0.736-0.64 0.704a7.264 7.264 0 0 1 1.12-0.64l-28.928-57.088a64.544 64.544 0 0 0-23.488 19.616L313.6 223.264z m280.128 475.392c46.688-31.136 105.888-69.248 125.28-146.88l-62.08-15.52c-12.608 50.4-49.408 76.256-98.72 109.152l35.52 53.248zM416 528a80 80 0 0 1-80 80v64a144 144 0 0 0 144-144h-64zM336 608A80 80 0 0 1 256 528H192a144 144 0 0 0 144 144v-64z m144-80c0-52.224-3.552-140-25.792-215.68-11.104-37.76-27.584-75.136-52.8-103.552C375.424 179.424 340.256 160 295.296 160v64c24.224 0 42.72 9.696 58.304 27.232 16.384 18.528 29.44 45.824 39.232 79.168 19.552 66.56 23.2 146.816 23.2 197.6h64z m-224 0v-192H192v192h64z" fill="#000000" p-id="4502"></path></svg>